# Blender v2.90.1 OBJ File: ''
# www.blender.org
mtllib Reservoir.mtl
o Circle
v 0.000000 0.000000 -4.999999
v -0.975451 0.000000 -4.903925
v -1.913417 0.000000 -4.619397
v -2.777851 0.000000 -4.157347
v -3.535533 0.000000 -3.535533
v -4.157348 0.000000 -2.777850
v -4.619397 0.000000 -1.913416
v -4.903926 0.000000 -0.975451
v -5.000000 0.000000 0.000001
v -4.903926 0.000000 0.975452
v -4.619397 0.000000 1.913418
v -4.157348 0.000000 2.777852
v -3.535533 0.000000 3.535535
v -2.777850 0.000000 4.157349
v -1.913416 0.000000 4.619399
v -0.975450 0.000000 4.903927
v 0.000002 0.000000 5.000000
v 0.975454 0.000000 4.903927
v 1.913420 0.000000 4.619398
v 2.777854 0.000000 4.157348
v 3.535537 0.000000 3.535533
v 4.157351 0.000000 2.777849
v 4.619400 0.000000 1.913415
v 4.903928 0.000000 0.975448
v 5.000000 0.000000 -0.000004
v 4.903926 0.000000 -0.975456
v 4.619396 0.000000 -1.913421
v 4.157345 0.000000 -2.777855
v 3.535530 0.000000 -3.535537
v 2.777846 0.000000 -4.157351
v 1.913411 0.000000 -4.619400
v 0.975445 0.000000 -4.903927
v 0.000000 10.000000 -4.999999
v -0.975451 10.000000 -4.903925
v -1.913417 10.000000 -4.619397
v -2.777851 10.000000 -4.157347
v -3.535533 10.000000 -3.535533
v -4.157348 10.000000 -2.777850
v -4.619397 10.000000 -1.913416
v -4.903926 10.000000 -0.975451
v -5.000000 10.000000 0.000001
v -4.903926 10.000000 0.975452
v -4.619397 10.000000 1.913418
v -4.157348 10.000000 2.777852
v -3.535533 10.000000 3.535535
v -2.777850 10.000000 4.157349
v -1.913416 10.000000 4.619399
v -0.975450 10.000000 4.903927
v 0.000002 10.000000 5.000000
v 0.975454 10.000000 4.903927
v 1.913420 10.000000 4.619398
v 2.777854 10.000000 4.157348
v 3.535537 10.000000 3.535533
v 4.157351 10.000000 2.777849
v 4.619400 10.000000 1.913415
v 4.903928 10.000000 0.975448
v 5.000000 10.000000 -0.000004
v 4.903926 10.000000 -0.975456
v 4.619396 10.000000 -1.913421
v 4.157345 10.000000 -2.777855
v 3.535530 10.000000 -3.535537
v 2.777846 10.000000 -4.157351
v 1.913411 10.000000 -4.619400
v 0.975445 10.000000 -4.903927
v 0.000000 -2.500000 -1.250000
v -0.243863 -2.500000 -1.225982
v -0.478354 -2.500000 -1.154850
v -0.694463 -2.500000 -1.039337
v -0.883883 -2.500000 -0.883883
v -1.039337 -2.500000 -0.694463
v -1.154849 -2.500000 -0.478354
v -1.225981 -2.500000 -0.243863
v -1.250000 -2.500000 -0.000000
v -1.225981 -2.500000 0.243863
v -1.154849 -2.500000 0.478354
v -1.039337 -2.500000 0.694463
v -0.883883 -2.500000 0.883883
v -0.694463 -2.500000 1.039337
v -0.478354 -2.500000 1.154850
v -0.243863 -2.500000 1.225981
v 0.000001 -2.500000 1.250000
v 0.243863 -2.500000 1.225981
v 0.478355 -2.500000 1.154849
v 0.694463 -2.500000 1.039337
v 0.883884 -2.500000 0.883883
v 1.039338 -2.500000 0.694462
v 1.154850 -2.500000 0.478353
v 1.225982 -2.500000 0.243862
v 1.250000 -2.500000 -0.000001
v 1.225981 -2.500000 -0.243864
v 1.154849 -2.500000 -0.478356
v 1.039336 -2.500000 -0.694464
v 0.883883 -2.500000 -0.883884
v 0.694462 -2.500000 -1.039338
v 0.478353 -2.500000 -1.154850
v 0.243861 -2.500000 -1.225982
v 0.000001 10.000000 0.000001
v 0.000001 10.500000 -5.499999
v -1.072996 10.500000 -5.394318
v -2.104759 10.500000 -5.081336
v -3.055636 10.500000 -4.573082
v -3.889086 10.500000 -3.889086
v -4.573082 10.500000 -3.055635
v -5.081337 10.500000 -2.104758
v -5.394319 10.500000 -1.072996
v -5.500000 10.500000 0.000001
v -5.394319 10.500000 1.072997
v -5.081337 10.500000 2.104759
v -4.573082 10.500000 3.055638
v -3.889086 10.500000 3.889089
v -3.055635 10.500000 4.573084
v -2.104758 10.500000 5.081339
v -1.072995 10.500000 5.394320
v 0.000002 10.500000 5.500000
v 1.072999 10.500000 5.394320
v 2.104762 10.500000 5.081337
v 3.055640 10.500000 4.573082
v 3.889091 10.500000 3.889086
v 4.573086 10.500000 3.055634
v 5.081340 10.500000 2.104756
v 5.394320 10.500000 1.072993
v 5.500000 10.500000 -0.000004
v 5.394319 10.500000 -1.073001
v 5.081336 10.500000 -2.104763
v 4.573080 10.500000 -3.055641
v 3.889083 10.500000 -3.889091
v 3.055631 10.500000 -4.573086
v 2.104752 10.500000 -5.081339
v 1.072989 10.500000 -5.394320
v 0.000001 10.500000 0.000001
v 0.000001 -0.200000 -5.499999
v -1.072996 -0.200000 -5.394318
v -2.104759 -0.200000 -5.081336
v -3.055636 -0.200000 -4.573082
v -3.889086 -0.200000 -3.889086
v -4.573082 -0.200000 -3.055635
v -5.081337 -0.200000 -2.104758
v -5.394319 -0.200000 -1.072996
v -5.500000 -0.200000 0.000001
v -5.394319 -0.200000 1.072997
v -5.081337 -0.200000 2.104759
v -4.573082 -0.200000 3.055638
v -3.889086 -0.200000 3.889089
v -3.055635 -0.200000 4.573084
v -2.104758 -0.200000 5.081339
v -1.072995 -0.200000 5.394320
v 0.000002 -0.200000 5.500000
v 1.072999 -0.200000 5.394320
v 2.104762 -0.200000 5.081337
v 3.055640 -0.200000 4.573082
v 3.889091 -0.200000 3.889086
v 4.573086 -0.200000 3.055634
v 5.081340 -0.200000 2.104756
v 5.394320 -0.200000 1.072993
v 5.500000 -0.200000 -0.000004
v 5.394319 -0.200000 -1.073001
v 5.081336 -0.200000 -2.104763
v 4.573080 -0.200000 -3.055641
v 3.889083 -0.200000 -3.889091
v 3.055631 -0.200000 -4.573086
v 2.104752 -0.200000 -5.081339
v 1.072989 -0.200000 -5.394320
v 0.000000 -2.899999 -1.250000
v -0.243863 -2.899999 -1.225982
v -0.478354 -2.899999 -1.154850
v -0.694463 -2.899999 -1.039337
v -0.883883 -2.899999 -0.883883
v -1.039337 -2.899999 -0.694463
v -1.154849 -2.899999 -0.478354
v -1.225981 -2.899999 -0.243863
v -1.250000 -2.899999 -0.000000
v -1.225981 -2.899999 0.243863
v -1.154849 -2.899999 0.478354
v -1.039337 -2.899999 0.694463
v -0.883883 -2.899999 0.883883
v -0.694463 -2.899999 1.039337
v -0.478354 -2.899999 1.154850
v -0.243863 -2.899999 1.225981
v 0.000001 -2.899999 1.250000
v 0.243863 -2.899999 1.225981
v 0.478355 -2.899999 1.154849
v 0.694463 -2.899999 1.039337
v 0.883884 -2.899999 0.883883
v 1.039338 -2.899999 0.694462
v 1.154850 -2.899999 0.478353
v 1.225982 -2.899999 0.243862
v 1.250000 -2.899999 -0.000001
v 1.225981 -2.899999 -0.243864
v 1.154849 -2.899999 -0.478356
v 1.039336 -2.899999 -0.694464
v 0.883883 -2.899999 -0.883884
v 0.694462 -2.899999 -1.039338
v 0.478353 -2.899999 -1.154850
v 0.243861 -2.899999 -1.225982
vt 0.000000 0.000000
vt 0.000000 0.000000
vt 0.000000 0.000000
vt 0.000000 0.000000
vt 0.000000 0.000000
vt 0.000000 0.000000
vt 0.000000 0.000000
vt 0.000000 0.000000
vt 0.000000 0.000000
vt 0.000000 0.000000
vt 0.000000 0.000000
vt 0.000000 0.000000
vt 0.000000 0.000000
vt 0.000000 0.000000
vt 0.000000 0.000000
vt 0.000000 0.000000
vt 0.000000 0.000000
vt 0.000000 0.000000
vt 0.000000 0.000000
vt 0.000000 0.000000
vt 0.000000 0.000000
vt 0.000000 0.000000
vt 0.000000 0.000000
vt 0.000000 0.000000
vt 0.000000 0.000000
vt 0.000000 0.000000
vt 0.000000 0.000000
vt 0.000000 0.000000
vt 0.000000 0.000000
vt 0.000000 0.000000
vt 0.000000 0.000000
vt 0.000000 0.000000
vt 0.000000 0.000000
vt 0.000000 0.000000
vt 0.000000 0.000000
vt 0.000000 0.000000
vt 0.000000 0.000000
vt 0.000000 0.000000
vt 0.000000 0.000000
vt 0.000000 0.000000
vt 0.000000 0.000000
vt 0.000000 0.000000
vt 0.000000 0.000000
vt 0.000000 0.000000
vt 0.000000 0.000000
vt 0.000000 0.000000
vt 0.000000 0.000000
vt 0.000000 0.000000
vt 0.000000 0.000000
vt 0.000000 0.000000
vt 0.000000 0.000000
vt 0.000000 0.000000
vt 0.000000 0.000000
vt 0.000000 0.000000
vt 0.000000 0.000000
vt 0.000000 0.000000
vt 0.000000 0.000000
vt 0.000000 0.000000
vt 0.000000 0.000000
vt 0.000000 0.000000
vt 0.000000 0.000000
vt 0.000000 0.000000
vt 0.000000 0.000000
vt 0.000000 0.000000
vt 0.000000 0.000000
vt 0.000000 0.000000
vt 0.000000 0.000000
vt 0.000000 0.000000
vt 0.000000 0.000000
vt 0.000000 0.000000
vt 0.000000 0.000000
vt 0.000000 0.000000
vt 0.000000 0.000000
vt 0.000000 0.000000
vt 0.000000 0.000000
vt 0.000000 0.000000
vt 0.000000 0.000000
vt 0.000000 0.000000
vt 0.000000 0.000000
vt 0.000000 0.000000
vt 0.000000 0.000000
vt 0.000000 0.000000
vt 0.000000 0.000000
vt 0.000000 0.000000
vt 0.000000 0.000000
vt 0.000000 0.000000
vt 0.000000 0.000000
vt 0.000000 0.000000
vt 0.000000 0.000000
vt 0.000000 0.000000
vt 0.000000 0.000000
vt 0.000000 0.000000
vt 0.000000 0.000000
vt 0.000000 0.000000
vt 0.000000 0.000000
vt 0.000000 0.000000
vt 0.000000 0.000000
vt 0.000000 0.000000
vt 0.000000 0.000000
vt 0.000000 0.000000
vt 0.000000 0.000000
vt 0.000000 0.000000
vt 0.000000 0.000000
vt 0.000000 0.000000
vt 0.000000 0.000000
vt 0.000000 0.000000
vt 0.000000 0.000000
vt 0.000000 0.000000
vt 0.000000 0.000000
vt 0.000000 0.000000
vt 0.000000 0.000000
vt 0.000000 0.000000
vt 0.000000 0.000000
vt 0.000000 0.000000
vt 0.000000 0.000000
vt 0.000000 0.000000
vt 0.000000 0.000000
vt 0.000000 0.000000
vt 0.000000 0.000000
vt 0.000000 0.000000
vt 0.000000 0.000000
vt 0.000000 0.000000
vt 0.000000 0.000000
vt 0.000000 0.000000
vt 0.000000 0.000000
vt 0.000000 0.000000
vt 0.000000 0.000000
vt 0.000000 0.000000
vt 0.000000 0.000000
vt 0.000000 0.000000
vt 0.000000 0.000000
vt 0.000000 0.000000
vt 0.000000 0.000000
vt 0.000000 0.000000
vt 0.000000 0.000000
vt 0.000000 0.000000
vt 0.000000 0.000000
vt 0.000000 0.000000
vt 0.000000 0.000000
vt 0.000000 0.000000
vt 0.000000 0.000000
vt 0.000000 0.000000
vt 0.000000 0.000000
vt 0.000000 0.000000
vt 0.000000 0.000000
vt 0.000000 0.000000
vt 0.000000 0.000000
vt 0.000000 0.000000
vt 0.000000 0.000000
vt 0.000000 0.000000
vt 0.000000 0.000000
vt 0.000000 0.000000
vt 0.000000 0.000000
vt 0.000000 0.000000
vt 0.000000 0.000000
vt 0.000000 0.000000
vt 0.000000 0.000000
vt 0.000000 0.000000
vt 0.000000 0.000000
vt 0.000000 0.000000
vt 0.000000 0.000000
vt 0.000000 0.000000
vt 0.000000 0.000000
vt 0.000000 0.000000
vt 0.000000 0.000000
vt 0.000000 0.000000
vt 0.000000 0.000000
vt 0.000000 0.000000
vt 0.000000 0.000000
vt 0.000000 0.000000
vt 0.000000 0.000000
vt 0.000000 0.000000
vt 0.000000 0.000000
vt 0.000000 0.000000
vt 0.000000 0.000000
vt 0.000000 0.000000
vt 0.000000 0.000000
vt 0.000000 0.000000
vt 0.000000 0.000000
vt 0.000000 0.000000
vt 0.000000 0.000000
vt 0.000000 0.000000
vt 0.000000 0.000000
vt 0.000000 0.000000
vt 0.000000 0.000000
vt 0.000000 0.000000
vt 0.000000 0.000000
vt 0.000000 0.000000
vt 0.000000 0.000000
vt 0.000000 0.000000
vt 0.000000 0.000000
vt 0.000000 0.000000
vt 0.000000 0.000000
vt 0.000000 0.000000
vn 0.7730 0.0000 0.6344
vn -0.0980 0.0000 0.9952
vn -0.4714 0.0000 -0.8819
vn 0.8819 0.0000 0.4714
vn -0.6344 0.0000 -0.7730
vn 0.9569 0.0000 0.2903
vn -0.7730 0.0000 -0.6344
vn 0.9952 0.0000 0.0980
vn -0.8819 0.0000 -0.4714
vn 0.9952 0.0000 -0.0980
vn -0.9569 0.0000 -0.2903
vn 0.9569 0.0000 -0.2903
vn -0.9952 0.0000 -0.0980
vn 0.8819 0.0000 -0.4714
vn -0.9952 0.0000 0.0980
vn 0.7730 0.0000 -0.6344
vn -0.9569 0.0000 0.2903
vn 0.6344 0.0000 -0.7730
vn -0.8819 0.0000 0.4714
vn 0.4714 0.0000 -0.8819
vn 0.0980 0.0000 0.9952
vn -0.7730 0.0000 0.6344
vn 0.2903 0.0000 -0.9569
vn 0.2903 0.0000 0.9569
vn -0.6344 0.0000 0.7730
vn 0.0980 0.0000 -0.9952
vn 0.4714 0.0000 0.8819
vn -0.4714 0.0000 0.8819
vn -0.0980 0.0000 -0.9952
vn 0.6344 0.0000 0.7730
vn -0.2903 0.0000 0.9569
vn -0.2903 0.0000 -0.9569
vn 0.4302 0.8308 0.3531
vn -0.0546 0.8308 0.5539
vn -0.2624 0.8308 -0.4908
vn 0.4908 0.8308 0.2624
vn -0.3531 0.8308 -0.4302
vn 0.5326 0.8308 0.1616
vn -0.4302 0.8308 -0.3531
vn 0.5539 0.8308 0.0546
vn -0.4908 0.8308 -0.2624
vn 0.5539 0.8308 -0.0546
vn -0.5326 0.8308 -0.1616
vn 0.5326 0.8308 -0.1616
vn -0.5539 0.8308 -0.0546
vn 0.4908 0.8308 -0.2624
vn -0.5539 0.8308 0.0546
vn 0.4302 0.8308 -0.3531
vn -0.5326 0.8308 0.1616
vn 0.3531 0.8308 -0.4302
vn -0.4908 0.8308 0.2624
vn 0.2624 0.8308 -0.4908
vn 0.0546 0.8308 0.5539
vn -0.4302 0.8308 0.3531
vn 0.1616 0.8308 -0.5326
vn 0.1616 0.8308 0.5326
vn -0.3531 0.8308 0.4302
vn 0.0546 0.8308 -0.5539
vn 0.2624 0.8308 0.4908
vn -0.2624 0.8308 0.4908
vn -0.0546 0.8308 -0.5539
vn 0.3531 0.8308 0.4302
vn -0.1616 0.8308 0.5326
vn -0.1616 0.8308 -0.5326
vn 0.0000 -1.0000 0.0000
vn 0.0000 1.0000 0.0000
vn 0.5355 -0.8429 0.0527
vn -0.5355 -0.8429 -0.0527
vn -0.0527 -0.8429 -0.5355
vn -0.5355 -0.8429 0.0527
vn -0.5149 -0.8429 0.1562
vn -0.4745 -0.8429 0.2536
vn -0.4159 -0.8429 0.3414
vn -0.3414 -0.8429 0.4159
vn -0.2536 -0.8429 0.4745
vn -0.1562 -0.8429 0.5149
vn -0.0527 -0.8429 0.5355
vn 0.0527 -0.8429 0.5355
vn 0.1562 -0.8429 0.5149
vn 0.2536 -0.8429 0.4745
vn 0.3414 -0.8429 0.4159
vn 0.4159 -0.8429 0.3414
vn 0.4745 -0.8429 0.2536
vn 0.5149 -0.8429 0.1562
vn -0.1562 -0.8429 -0.5149
vn -0.2536 -0.8429 -0.4745
vn -0.3414 -0.8429 -0.4159
vn -0.4159 -0.8429 -0.3414
vn -0.4745 -0.8429 -0.2536
vn -0.5149 -0.8429 -0.1562
vn 0.0527 -0.8429 -0.5355
vn 0.1562 -0.8429 -0.5149
vn 0.2536 -0.8429 -0.4745
vn 0.3414 -0.8429 -0.4159
vn 0.4159 -0.8429 -0.3414
vn 0.4745 -0.8429 -0.2536
vn 0.5149 -0.8429 -0.1562
vn 0.5355 -0.8429 -0.0527
usemtl None
s off
f 6/1/1 5/2/1 37/3/1 38/4/1
f 1/5/2 32/6/2 64/7/2 33/8/2
f 20/9/3 19/10/3 51/11/3 52/12/3
f 7/13/4 6/1/4 38/4/4 39/14/4
f 21/15/5 20/9/5 52/12/5 53/16/5
f 8/17/6 7/13/6 39/14/6 40/18/6
f 22/19/7 21/15/7 53/16/7 54/20/7
f 9/21/8 8/17/8 40/18/8 41/22/8
f 23/23/9 22/19/9 54/20/9 55/24/9
f 10/25/10 9/21/10 41/22/10 42/26/10
f 24/27/11 23/23/11 55/24/11 56/28/11
f 11/29/12 10/25/12 42/26/12 43/30/12
f 25/31/13 24/27/13 56/28/13 57/32/13
f 12/33/14 11/29/14 43/30/14 44/34/14
f 26/35/15 25/31/15 57/32/15 58/36/15
f 13/37/16 12/33/16 44/34/16 45/38/16
f 27/39/17 26/35/17 58/36/17 59/40/17
f 14/41/18 13/37/18 45/38/18 46/42/18
f 28/43/19 27/39/19 59/40/19 60/44/19
f 15/45/20 14/41/20 46/42/20 47/46/20
f 2/47/21 1/5/21 33/8/21 34/48/21
f 29/49/22 28/43/22 60/44/22 61/50/22
f 16/51/23 15/45/23 47/46/23 48/52/23
f 3/53/24 2/47/24 34/48/24 35/54/24
f 30/55/25 29/49/25 61/50/25 62/56/25
f 17/57/26 16/51/26 48/52/26 49/58/26
f 4/59/27 3/53/27 35/54/27 36/60/27
f 31/61/28 30/55/28 62/56/28 63/62/28
f 18/63/29 17/57/29 49/58/29 50/64/29
f 5/2/30 4/59/30 36/60/30 37/3/30
f 32/6/31 31/61/31 63/62/31 64/7/31
f 19/10/32 18/63/32 50/64/32 51/11/32
f 5/2/33 6/1/33 70/65/33 69/66/33
f 32/6/34 1/5/34 65/67/34 96/68/34
f 19/10/35 20/9/35 84/69/35 83/70/35
f 6/1/36 7/13/36 71/71/36 70/65/36
f 20/9/37 21/15/37 85/72/37 84/69/37
f 7/13/38 8/17/38 72/73/38 71/71/38
f 21/15/39 22/19/39 86/74/39 85/72/39
f 8/17/40 9/21/40 73/75/40 72/73/40
f 22/19/41 23/23/41 87/76/41 86/74/41
f 9/21/42 10/25/42 74/77/42 73/75/42
f 23/23/43 24/27/43 88/78/43 87/76/43
f 10/25/44 11/29/44 75/79/44 74/77/44
f 24/27/45 25/31/45 89/80/45 88/78/45
f 11/29/46 12/33/46 76/81/46 75/79/46
f 25/31/47 26/35/47 90/82/47 89/80/47
f 12/33/48 13/37/48 77/83/48 76/81/48
f 26/35/49 27/39/49 91/84/49 90/82/49
f 13/37/50 14/41/50 78/85/50 77/83/50
f 27/39/51 28/43/51 92/86/51 91/84/51
f 14/41/52 15/45/52 79/87/52 78/85/52
f 1/5/53 2/47/53 66/88/53 65/67/53
f 28/43/54 29/49/54 93/89/54 92/86/54
f 15/45/55 16/51/55 80/90/55 79/87/55
f 2/47/56 3/53/56 67/91/56 66/88/56
f 29/49/57 30/55/57 94/92/57 93/89/57
f 16/51/58 17/57/58 81/93/58 80/90/58
f 3/53/59 4/59/59 68/94/59 67/91/59
f 30/55/60 31/61/60 95/95/60 94/92/60
f 17/57/61 18/63/61 82/96/61 81/93/61
f 4/59/62 5/2/62 69/66/62 68/94/62
f 31/61/63 32/6/63 96/68/63 95/95/63
f 18/63/64 19/10/64 83/70/64 82/96/64
f 33/8/65 97/97/65 34/48/65
f 34/48/65 97/97/65 35/54/65
f 35/54/65 97/97/65 36/60/65
f 36/60/65 97/97/65 37/3/65
f 37/3/65 97/97/65 38/4/65
f 38/4/65 97/97/65 39/14/65
f 39/14/65 97/97/65 40/18/65
f 40/18/65 97/97/65 41/22/65
f 41/22/65 97/97/65 42/26/65
f 42/26/65 97/97/65 43/30/65
f 43/30/65 97/97/65 44/34/65
f 44/34/65 97/97/65 45/38/65
f 45/38/65 97/97/65 46/42/65
f 46/42/65 97/97/65 47/46/65
f 47/46/65 97/97/65 48/52/65
f 48/52/65 97/97/65 49/58/65
f 97/97/65 50/64/65 49/58/65
f 50/64/65 97/97/65 51/11/65
f 51/11/65 97/97/65 52/12/65
f 52/12/65 97/97/65 53/16/65
f 53/16/65 97/97/65 54/20/65
f 54/20/65 97/97/65 55/24/65
f 55/24/65 97/97/65 56/28/65
f 56/28/65 97/97/65 57/32/65
f 57/32/65 97/97/65 58/36/65
f 58/36/65 97/97/65 59/40/65
f 59/40/65 97/97/65 60/44/65
f 60/44/65 97/97/65 61/50/65
f 61/50/65 97/97/65 62/56/65
f 62/56/65 97/97/65 63/62/65
f 63/62/65 97/97/65 64/7/65
f 64/7/65 97/97/65 33/8/65
f 98/98/66 99/99/66 130/100/66
f 99/99/66 100/101/66 130/100/66
f 100/101/66 101/102/66 130/100/66
f 101/102/66 102/103/66 130/100/66
f 102/103/66 103/104/66 130/100/66
f 103/104/66 104/105/66 130/100/66
f 104/105/66 105/106/66 130/100/66
f 105/106/66 106/107/66 130/100/66
f 106/107/66 107/108/66 130/100/66
f 107/108/66 108/109/66 130/100/66
f 108/109/66 109/110/66 130/100/66
f 109/110/66 110/111/66 130/100/66
f 110/111/66 111/112/66 130/100/66
f 111/112/66 112/113/66 130/100/66
f 112/113/66 113/114/66 130/100/66
f 113/114/66 114/115/66 130/100/66
f 130/100/66 114/115/66 115/116/66
f 115/116/66 116/117/66 130/100/66
f 116/117/66 117/118/66 130/100/66
f 117/118/66 118/119/66 130/100/66
f 118/119/66 119/120/66 130/100/66
f 119/120/66 120/121/66 130/100/66
f 120/121/66 121/122/66 130/100/66
f 121/122/66 122/123/66 130/100/66
f 122/123/66 123/124/66 130/100/66
f 123/124/66 124/125/66 130/100/66
f 124/125/66 125/126/66 130/100/66
f 125/126/66 126/127/66 130/100/66
f 126/127/66 127/128/66 130/100/66
f 127/128/66 128/129/66 130/100/66
f 128/129/66 129/130/66 130/100/66
f 129/130/66 98/98/66 130/100/66
f 111/112/28 144/131/28 145/132/28 112/113/28
f 98/98/29 131/133/29 132/134/29 99/99/29
f 125/126/16 158/135/16 159/136/16 126/127/16
f 112/113/31 145/132/31 146/137/31 113/114/31
f 99/99/32 132/134/32 133/138/32 100/101/32
f 126/127/18 159/136/18 160/139/18 127/128/18
f 113/114/2 146/137/2 147/140/2 114/115/2
f 100/101/3 133/138/3 134/141/3 101/102/3
f 127/128/20 160/139/20 161/142/20 128/129/20
f 114/115/21 147/140/21 148/143/21 115/116/21
f 101/102/5 134/141/5 135/144/5 102/103/5
f 128/129/23 161/142/23 162/145/23 129/130/23
f 115/116/24 148/143/24 149/146/24 116/117/24
f 102/103/7 135/144/7 136/147/7 103/104/7
f 129/130/26 162/145/26 131/133/26 98/98/26
f 116/117/27 149/146/27 150/148/27 117/118/27
f 103/104/9 136/147/9 137/149/9 104/105/9
f 117/118/30 150/148/30 151/150/30 118/119/30
f 104/105/11 137/149/11 138/151/11 105/106/11
f 118/119/1 151/150/1 152/152/1 119/120/1
f 105/106/13 138/151/13 139/153/13 106/107/13
f 119/120/4 152/152/4 153/154/4 120/121/4
f 106/107/15 139/153/15 140/155/15 107/108/15
f 120/121/6 153/154/6 154/156/6 121/122/6
f 107/108/17 140/155/17 141/157/17 108/109/17
f 121/122/8 154/156/8 155/158/8 122/123/8
f 108/109/19 141/157/19 142/159/19 109/110/19
f 122/123/10 155/158/10 156/160/10 123/124/10
f 109/110/22 142/159/22 143/161/22 110/111/22
f 123/124/12 156/160/12 157/162/12 124/125/12
f 110/111/25 143/161/25 144/131/25 111/112/25
f 124/125/14 157/162/14 158/135/14 125/126/14
f 80/90/26 81/93/26 179/163/26 178/164/26
f 67/91/27 68/94/27 166/165/27 165/166/27
f 94/92/28 95/95/28 193/167/28 192/168/28
f 81/93/29 82/96/29 180/169/29 179/163/29
f 68/94/30 69/66/30 167/170/30 166/165/30
f 95/95/31 96/68/31 194/171/31 193/167/31
f 82/96/32 83/70/32 181/172/32 180/169/32
f 69/66/1 70/65/1 168/173/1 167/170/1
f 96/68/2 65/67/2 163/174/2 194/171/2
f 83/70/3 84/69/3 182/175/3 181/172/3
f 70/65/4 71/71/4 169/176/4 168/173/4
f 84/69/5 85/72/5 183/177/5 182/175/5
f 71/71/6 72/73/6 170/178/6 169/176/6
f 85/72/7 86/74/7 184/179/7 183/177/7
f 72/73/8 73/75/8 171/180/8 170/178/8
f 86/74/9 87/76/9 185/181/9 184/179/9
f 73/75/10 74/77/10 172/182/10 171/180/10
f 87/76/11 88/78/11 186/183/11 185/181/11
f 74/77/12 75/79/12 173/184/12 172/182/12
f 88/78/13 89/80/13 187/185/13 186/183/13
f 75/79/14 76/81/14 174/186/14 173/184/14
f 89/80/15 90/82/15 188/187/15 187/185/15
f 76/81/16 77/83/16 175/188/16 174/186/16
f 90/82/17 91/84/17 189/189/17 188/187/17
f 77/83/18 78/85/18 176/190/18 175/188/18
f 91/84/19 92/86/19 190/191/19 189/189/19
f 78/85/20 79/87/20 177/192/20 176/190/20
f 65/67/21 66/88/21 164/193/21 163/174/21
f 92/86/22 93/89/22 191/194/22 190/191/22
f 79/87/23 80/90/23 178/164/23 177/192/23
f 66/88/24 67/91/24 165/166/24 164/193/24
f 93/89/25 94/92/25 192/168/25 191/194/25
f 187/185/67 155/158/67 154/156/67 186/183/67
f 170/178/68 171/180/68 139/153/68 138/151/68
f 131/133/69 163/174/69 164/193/69 132/134/69
f 171/180/70 172/182/70 140/155/70 139/153/70
f 172/182/71 173/184/71 141/157/71 140/155/71
f 173/184/72 174/186/72 142/159/72 141/157/72
f 174/186/73 175/188/73 143/161/73 142/159/73
f 175/188/74 176/190/74 144/131/74 143/161/74
f 176/190/75 177/192/75 145/132/75 144/131/75
f 177/192/76 178/164/76 146/137/76 145/132/76
f 178/164/77 179/163/77 147/140/77 146/137/77
f 179/163/78 180/169/78 148/143/78 147/140/78
f 180/169/79 181/172/79 149/146/79 148/143/79
f 181/172/80 182/175/80 150/148/80 149/146/80
f 182/175/81 183/177/81 151/150/81 150/148/81
f 183/177/82 184/179/82 152/152/82 151/150/82
f 184/179/83 185/181/83 153/154/83 152/152/83
f 185/181/84 186/183/84 154/156/84 153/154/84
f 164/193/85 165/166/85 133/138/85 132/134/85
f 165/166/86 166/165/86 134/141/86 133/138/86
f 166/165/87 167/170/87 135/144/87 134/141/87
f 167/170/88 168/173/88 136/147/88 135/144/88
f 168/173/89 169/176/89 137/149/89 136/147/89
f 169/176/90 170/178/90 138/151/90 137/149/90
f 163/174/91 131/133/91 162/145/91 194/171/91
f 194/171/92 162/145/92 161/142/92 193/167/92
f 193/167/93 161/142/93 160/139/93 192/168/93
f 192/168/94 160/139/94 159/136/94 191/194/94
f 191/194/95 159/136/95 158/135/95 190/191/95
f 190/191/96 158/135/96 157/162/96 189/189/96
f 189/189/97 157/162/97 156/160/97 188/187/97
f 188/187/98 156/160/98 155/158/98 187/185/98
