# Blender v2.90.1 OBJ File: ''
# www.blender.org
mtllib WaterSensorExterior.mtl
o WaterSensorExterior_Cube
v 1.000000 0.000000 -1.000000
v 1.000000 0.000000 1.000000
v -1.000000 0.000000 -1.000000
v -1.000000 0.000000 1.000000
v 1.200000 0.000000 -1.200000
v 1.200000 0.000000 1.200000
v -1.200000 0.000000 -1.200000
v -1.200000 0.000000 1.200000
v 1.000000 9.900000 -1.000000
v 1.000000 9.900000 1.000000
v -1.000000 9.900000 -1.000000
v -1.000000 9.900000 1.000000
v 1.200000 10.000000 -1.200000
v 1.200000 10.000000 1.200000
v -1.200000 10.000000 -1.200000
v -1.200000 10.000000 1.200000
v 1.200000 1.000000 0.600000
v 1.000000 1.000000 0.600000
v 1.000000 0.000000 0.600000
v 1.200000 0.000000 0.600000
v 1.000000 0.000000 -0.600000
v 1.200000 0.000000 -0.600000
v 1.000000 1.000000 -0.600000
v 1.200000 1.000000 -0.600000
v -1.200000 1.000000 0.600000
v -1.000000 1.000000 0.600000
v -1.000000 0.000000 0.600000
v -1.200000 0.000000 0.600000
v -1.000000 0.000000 -0.600000
v -1.200000 0.000000 -0.600000
v -1.000000 1.000000 -0.600000
v -1.200000 1.000000 -0.600000
v 0.600000 1.000000 -1.200000
v 0.600000 1.000000 -1.000000
v 0.600000 0.000000 -1.000000
v 0.600000 0.000000 -1.200000
v -0.600000 0.000000 -1.000000
v -0.600000 0.000000 -1.200000
v -0.600000 1.000000 -1.000000
v -0.600000 1.000000 -1.200000
v 0.600000 1.000000 1.200000
v 0.600000 1.000000 1.000000
v 0.600000 0.000000 1.000000
v 0.600000 0.000000 1.200000
v -0.600000 0.000000 1.000000
v -0.600000 0.000000 1.200000
v -0.600000 1.000000 1.000000
v -0.600000 1.000000 1.200000
vt 0.000000 0.000000
vt 0.000000 0.000000
vt 0.000000 0.000000
vt 0.000000 0.000000
vt 0.000000 0.000000
vt 0.000000 0.000000
vt 0.000000 0.000000
vt 0.000000 0.000000
vt 0.000000 0.000000
vt 0.000000 0.000000
vt 0.000000 0.000000
vt 0.000000 0.000000
vt 0.000000 0.000000
vt 0.000000 0.000000
vt 0.000000 0.000000
vt 0.000000 0.000000
vt 0.000000 0.000000
vt 0.000000 0.000000
vt 0.000000 0.000000
vt 0.000000 0.000000
vt 0.000000 0.000000
vt 0.000000 0.000000
vt 0.000000 0.000000
vt 0.000000 0.000000
vt 0.000000 0.000000
vt 0.000000 0.000000
vt 0.000000 0.000000
vt 0.000000 0.000000
vt 0.000000 0.000000
vt 0.000000 0.000000
vt 0.000000 0.000000
vt 0.000000 0.000000
vt 0.000000 0.000000
vt 0.000000 0.000000
vt 0.000000 0.000000
vt 0.000000 0.000000
vt 0.000000 0.000000
vt 0.000000 0.000000
vt 0.000000 0.000000
vt 0.000000 0.000000
vt 0.000000 0.000000
vt 0.000000 0.000000
vt 0.000000 0.000000
vt 0.000000 0.000000
vt 0.000000 0.000000
vt 0.000000 0.000000
vt 0.000000 0.000000
vt 0.000000 0.000000
vn 0.0000 0.0000 1.0000
vn 1.0000 0.0000 0.0000
vn 0.0000 0.0000 -1.0000
vn -0.0000 -1.0000 0.0000
vn 0.0000 1.0000 0.0000
vn -1.0000 0.0000 0.0000
usemtl Material
s off
f 41/1/1 14/2/1 16/3/1 48/4/1
f 27/5/2 26/6/2 12/7/2 4/8/2
f 44/9/1 6/10/1 14/2/1 41/1/1
f 17/11/2 14/2/2 6/10/2 20/12/2
f 47/13/3 12/7/3 10/14/3 42/15/3
f 21/16/1 22/17/1 24/18/1 23/19/1
f 43/20/4 2/21/4 6/10/4 44/9/4
f 8/22/4 4/8/4 45/23/4 46/24/4
f 42/15/3 10/14/3 2/21/3 43/20/3
f 45/23/3 4/8/3 12/7/3 47/13/3
f 22/17/2 5/25/2 13/26/2 24/18/2
f 27/5/4 4/8/4 8/22/4 28/27/4
f 11/28/4 9/29/4 10/14/4 12/7/4
f 15/30/5 16/3/5 14/2/5 13/26/5
f 24/18/2 13/26/2 14/2/2 17/11/2
f 19/31/3 18/32/3 17/11/3 20/12/3
f 20/12/4 6/10/4 2/21/4 19/31/4
f 19/31/6 2/21/6 10/14/6 18/32/6
f 18/32/6 10/14/6 9/29/6 23/19/6
f 23/19/6 9/29/6 1/33/6 21/16/6
f 21/16/4 1/33/4 5/25/4 22/17/4
f 23/19/4 24/18/4 17/11/4 18/32/4
f 29/34/1 31/35/1 32/36/1 30/37/1
f 27/5/3 28/27/3 25/38/3 26/6/3
f 31/35/4 26/6/4 25/38/4 32/36/4
f 37/39/2 38/40/2 40/41/2 39/42/2
f 35/43/6 34/44/6 33/45/6 36/46/6
f 39/42/4 40/41/4 33/45/4 34/44/4
f 45/23/2 47/13/2 48/4/2 46/24/2
f 43/20/6 44/9/6 41/1/6 42/15/6
f 47/13/4 42/15/4 41/1/4 48/4/4
f 48/4/1 16/3/1 8/22/1 46/24/1
f 16/3/6 25/38/6 28/27/6 8/22/6
f 25/38/6 16/3/6 15/30/6 32/36/6
f 32/36/6 15/30/6 7/47/6 30/37/6
f 15/30/3 40/41/3 38/40/3 7/47/3
f 38/40/4 37/39/4 3/48/4 7/47/4
f 7/47/4 3/48/4 29/34/4 30/37/4
f 29/34/2 3/48/2 11/28/2 31/35/2
f 3/48/1 37/39/1 39/42/1 11/28/1
f 39/42/1 34/44/1 9/29/1 11/28/1
f 34/44/1 35/43/1 1/33/1 9/29/1
f 35/43/4 36/46/4 5/25/4 1/33/4
f 36/46/3 33/45/3 13/26/3 5/25/3
f 33/45/3 40/41/3 15/30/3 13/26/3
f 31/35/2 11/28/2 12/7/2 26/6/2
